<?xml version="1.0" encoding="utf-8"?>
<!-- Generator: Adobe Illustrator 19.1.0, SVG Export Plug-In . SVG Version: 6.00 Build 0)  -->
<!DOCTYPE svg PUBLIC "-//W3C//DTD SVG 1.1//EN" "http://www.w3.org/Graphics/SVG/1.1/DTD/svg11.dtd">
<svg version="1.1" id="Layer_1" xmlns="http://www.w3.org/2000/svg" xmlns:xlink="http://www.w3.org/1999/xlink" x="0px" y="0px"
	 viewBox="0 0 358.6 158" enable-background="new 0 0 358.6 158" xml:space="preserve">
<g>
	<g>
		<polygon fill-rule="evenodd" clip-rule="evenodd" fill="#E4E2E1" points="92.9,16 99,77.8 57.1,88 		"/>
		<polygon fill-rule="evenodd" clip-rule="evenodd" fill="#E6E5E5" points="92.9,16 16.3,60.2 57.1,88 		"/>
		<polygon fill-rule="evenodd" clip-rule="evenodd" fill="#E4E2E1" points="99,77.8 54.1,109.6 56.9,87.8 		"/>
		<polygon fill-rule="evenodd" clip-rule="evenodd" fill="#EBEBEB" points="56.9,87.7 54.1,109.6 16.3,60.2 		"/>
		<polygon fill-rule="evenodd" clip-rule="evenodd" fill="#EBEBEB" points="99,77.8 126.2,89.9 54.1,109.6 		"/>
		<polygon fill-rule="evenodd" clip-rule="evenodd" fill="#E6E5E5" points="126.2,89.9 80.2,140 54.1,109.6 		"/>
		<polygon fill-rule="evenodd" clip-rule="evenodd" fill="#E0DFDF" points="80.2,140 41.2,131.1 54.1,109.6 		"/>
		<polygon fill-rule="evenodd" clip-rule="evenodd" fill="#E6E4E4" points="16.3,60.2 41.2,131.1 54.1,109.6 		"/>
		<polygon fill-rule="evenodd" clip-rule="evenodd" fill="#EEEEEE" points="126.2,89.9 92.9,16 99,77.8 		"/>
	</g>
	<g>
		<polygon fill-rule="evenodd" clip-rule="evenodd" fill="#566E80" points="16,69.7 53.4,63.8 92.1,97 66.7,140.3 56.5,133 
			37.2,138.3 74,99 		"/>
		<polygon fill-rule="evenodd" clip-rule="evenodd" fill="#3D5165" points="53.4,63.8 79,101.8 74,99 		"/>
		<polygon fill-rule="evenodd" clip-rule="evenodd" fill="#566E80" points="41.6,77.4 65.5,84.5 74,99 		"/>
		<polygon fill-rule="evenodd" clip-rule="evenodd" fill="#20BEDE" points="90.1,59 99.9,71.8 92.1,97 		"/>
		<polygon fill-rule="evenodd" clip-rule="evenodd" fill="#04A5D1" points="90.1,59 106.4,49.5 109.3,84.1 		"/>
		<polygon fill-rule="evenodd" clip-rule="evenodd" fill="#20BEDE" points="107.5,61.7 119.5,51.9 106.4,49.5 		"/>
		<polygon fill-rule="evenodd" clip-rule="evenodd" points="66.7,140.3 92.1,97 79,101.8 		"/>
		<polygon fill-rule="evenodd" clip-rule="evenodd" fill="#007FAD" points="66.7,140.3 74,99 56.5,133 		"/>
		<polygon fill-rule="evenodd" clip-rule="evenodd" fill="#77CFE0" points="25.3,41.3 64.5,58.2 76,41.1 		"/>
		<polygon fill-rule="evenodd" clip-rule="evenodd" fill="#04A5D1" points="90.1,59 64.5,58.2 92.1,97 		"/>
		<polygon fill-rule="evenodd" clip-rule="evenodd" fill="#20BEDE" points="65.5,84.5 53.4,63.8 16,69.7 		"/>
		<polygon fill-rule="evenodd" clip-rule="evenodd" fill="#039AC4" points="25.3,41.3 53.4,63.8 79,101.8 64.5,58.2 		"/>
		<polygon fill-rule="evenodd" clip-rule="evenodd" points="16,69.7 41.6,77.4 74,99 		"/>
		<polygon fill-rule="evenodd" clip-rule="evenodd" fill="#007FAD" points="64.5,58.2 79,101.8 92.1,97 		"/>
		<polygon fill-rule="evenodd" clip-rule="evenodd" points="92.1,97 109.3,84.1 99.9,71.8 		"/>
		<polygon fill-rule="evenodd" clip-rule="evenodd" fill="#566E80" points="66.7,140.3 79,101.8 74,99 		"/>
		<polygon fill-rule="evenodd" clip-rule="evenodd" fill="#04A5D1" points="30.3,142 56.5,133 74,99 		"/>
		<polygon fill-rule="evenodd" clip-rule="evenodd" fill="#20BEDE" points="64.5,58.2 76,41.1 90.1,59 		"/>
	</g>
	<path fill="#20BEDE" d="M125.4,119.3V63.1h18.4c6.6,0,11.8,1.3,15.5,3.9c3.7,2.6,5.6,6.4,5.6,11.5c0,2.6-0.7,4.9-2,6.9
		c-1.3,2-3.3,3.6-5.9,4.6c3.5,0.6,6.1,2.2,7.9,4.6c1.8,2.4,2.7,5.2,2.7,8.4c0,5.4-1.8,9.5-5.3,12.2c-3.6,2.8-8.6,4.2-15.1,4.2H125.4
		z M136.7,86.6h7.5c3,0,5.3-0.6,7-1.9c1.6-1.2,2.4-3,2.4-5.4c0-2.6-0.8-4.5-2.5-5.8c-1.6-1.2-4.1-1.9-7.3-1.9h-7.1V86.6z
		 M136.7,94.4v16.2h10.5c3,0,5.3-0.7,6.8-2c1.6-1.3,2.4-3.2,2.4-5.8c0-2.7-0.8-4.8-2.3-6.3c-1.5-1.5-3.9-2.2-7-2.2H136.7z"/>
	<path fill="#20BEDE" d="M184.8,71.5h-11.3v-8.5h11.3V71.5z M184.8,119.3h-11.3V77.5h11.3V119.3z"/>
	<path fill="#20BEDE" d="M214.1,87.2l-4.1-0.1c-1.7,0-3.1,0.3-4.1,1c-1.1,0.7-1.9,1.7-2.5,2.9v28.2h-11.2V77.5h10.5l0.5,6.2
		c1-2.2,2.2-3.9,3.8-5.1c1.6-1.2,3.4-1.8,5.4-1.8c0.6,0,1.1,0,1.6,0.1c0.5,0.1,1,0.2,1.4,0.3L214.1,87.2z"/>
	<path fill="#20BEDE" d="M216.3,100.1c0-6.2,1.4-11.1,4.3-14.9c2.8-3.8,6.9-5.7,12-5.7c2.1,0,4,0.4,5.6,1.3s3.1,2,4.4,3.6V63H254
		v56.4h-9.6l-1-4.8c-1.3,1.8-2.9,3.2-4.7,4.1c-1.8,1-3.9,1.4-6.2,1.4c-5.1,0-9.1-1.8-12-5.3c-2.8-3.5-4.3-8.2-4.3-14V100.1z
		 M227.5,100.9c0,3.4,0.6,6.1,1.9,8.1c1.2,2,3.2,2.9,6,2.9c1.6,0,3-0.3,4.3-0.9c1.2-0.6,2.2-1.5,3-2.7V91.7c-0.8-1.2-1.8-2.2-3-2.9
		c-1.2-0.7-2.6-1-4.2-1c-2.8,0-4.8,1.1-6,3.4c-1.3,2.3-1.9,5.3-1.9,9V100.9z"/>
	<path fill="#E6E5E5" d="M299,63.1v36.8c0,6.3-2.1,11.3-6.3,14.9c-4.2,3.6-9.6,5.4-16.3,5.4c-6.7,0-12.1-1.8-16.2-5.4
		c-4.2-3.6-6.2-8.5-6.2-14.9V63.1h11.3v36.8c0,3.8,1,6.6,3,8.6s4.7,3,8.2,3c3.5,0,6.2-1,8.3-3s3.1-4.9,3.1-8.6V63.1H299z"/>
	<path fill="#E6E5E5" d="M318,83l10.6-19.9h13.1L325,91l17.7,28.4H329L318.1,99l-10.9,20.3h-13.2L311.2,91l-16.7-27.9h13.1L318,83z"
		/>
	<g>
		<path fill="#007FAD" d="M125.3,63.1h11.2v38.8c0,5.6-1.7,10-5.1,13.3c-3.4,3.3-7.8,4.9-13.2,4.9c-6,0-10.7-1.5-14.1-4.4
			s-5.2-7.2-5-12.8l0.1-0.2h11c0,3,0.7,5.2,2.2,6.6c1.5,1.4,3.4,2.1,5.9,2.1c2.1,0,3.7-0.9,5.1-2.6c1.3-1.7,2-4.1,2-7V63.1z"/>
	</g>
</g>
</svg>
